# xmcd
#
# Track frame offsets:
#	150
#	14335
#	29826
#	41550
#	58495
#	71445
#	82090
#	98000
#	113535
#	124115
#	132975
#	143985
#
# Disc length: 2067 seconds
#
# Revision: 1
# Processed by: cddbd v1.5.1PL0 Copyright (c) Steve Scherf et al.
# Submitted via: CDex 1.50Beta5
#
DISCID=ad08110c
DTITLE=ASTRO BABYS - KRAZY BEAT HEAVEN
DYEAR=1900
DGENRE=Rock
TTITLE0=KRAZY TOUWN
TTITLE1=JETTY BOY
TTITLE2=BABY SMILE
TTITLE3=MY CLASH
TTITLE4=小さなベット
TTITLE5=RUN RUN RUN
TTITLE6=SPEED BABY
TTITLE7=ミルクティー
TTITLE8=RIPIT UP
TTITLE9=RUMBLE HEAVEN
TTITLE10=HAPPY BIRTHDAY
TTITLE11=坂の上のガソリンスタンド
EXTD=
EXTT0=
EXTT1=
EXTT2=
EXTT3=
EXTT4=
EXTT5=
EXTT6=
EXTT7=
EXTT8=
EXTT9=
EXTT10=
EXTT11=
PLAYORDER=
